<?xml version="1.0" encoding="UTF-8"?> <svg xmlns="http://www.w3.org/2000/svg" width="201" height="49" viewBox="0 0 201 49" fill="none"><path fill-rule="evenodd" clip-rule="evenodd" d="M49 24.5C49 38.031 38.031 49 24.5 49C19.0097 49 13.9412 47.1941 9.85614 44.1438L18.5203 35.4797C20.2966 36.4491 22.3339 37 24.5 37C31.4036 37 37 31.4036 37 24.5C37 22.3339 36.4491 20.2966 35.4797 18.5203L44.1438 9.85615C47.1941 13.9412 49 19.0097 49 24.5ZM30.4206 13.4883L39.1292 4.84525C35.0467 1.80162 29.9837 0 24.5 0C10.969 0 0 10.969 0 24.5C0 29.9173 1.75822 34.9239 4.73514 38.9804L13.4438 30.3373C12.522 28.5949 12 26.6084 12 24.5C12 17.5964 17.5964 12 24.5 12C26.6421 12 28.6583 12.5388 30.4206 13.4883Z" fill="#FF6622"></path><path d="M61.0416 32.2C61.9666 32.75 63.8166 33.25 65.5916 33.25C69.9416 33.25 71.9916 30.9 71.9916 28.2C71.9916 25.775 70.5666 24.3 67.6416 23.2C65.3916 22.325 64.4166 21.725 64.4166 20.425C64.4166 19.45 65.2666 18.4 67.2166 18.4C68.7916 18.4 69.9666 18.875 70.5666 19.2L71.3166 16.725C70.4416 16.275 69.0916 15.875 67.2666 15.875C63.6166 15.875 61.3166 17.975 61.3166 20.725C61.3166 23.15 63.0916 24.625 65.8666 25.625C68.0166 26.4 68.8666 27.15 68.8666 28.425C68.8666 29.8 67.7666 30.725 65.7916 30.725C64.2166 30.725 62.7166 30.225 61.7166 29.65L61.0416 32.2ZM84.402 33C84.277 32.25 84.227 31.175 84.227 30.075V25.675C84.227 23.025 83.102 20.55 79.202 20.55C77.277 20.55 75.702 21.075 74.802 21.625L75.402 23.625C76.227 23.1 77.477 22.725 78.677 22.725C80.827 22.725 81.152 24.05 81.152 24.85V25.05C76.652 25.025 73.927 26.575 73.927 29.65C73.927 31.5 75.302 33.275 77.752 33.275C79.327 33.275 80.602 32.6 81.352 31.65H81.427L81.627 33H84.402ZM81.227 28.725C81.227 28.925 81.202 29.175 81.127 29.4C80.852 30.275 79.952 31.075 78.727 31.075C77.752 31.075 76.977 30.525 76.977 29.325C76.977 27.475 79.052 27 81.227 27.05V28.725ZM87.8508 18.075V20.825H86.1008V23.125H87.8508V28.85C87.8508 30.45 88.1508 31.55 88.8008 32.25C89.3758 32.875 90.3258 33.25 91.4508 33.25C92.4258 33.25 93.2258 33.125 93.6758 32.95L93.6258 30.6C93.3508 30.675 92.9508 30.75 92.4258 30.75C91.2508 30.75 90.8508 29.975 90.8508 28.5V23.125H93.7758V20.825H90.8508V17.35L87.8508 18.075ZM106.99 20.825H103.915V28.175C103.915 28.525 103.84 28.85 103.74 29.125C103.415 29.9 102.615 30.775 101.39 30.775C99.7654 30.775 99.1154 29.475 99.1154 27.45V20.825H96.0404V27.975C96.0404 31.95 98.0654 33.275 100.29 33.275C102.465 33.275 103.665 32.025 104.19 31.15H104.24L104.39 33H107.09C107.04 32 106.99 30.8 106.99 29.35V20.825ZM110.324 33H113.399V26.7C113.399 26.35 113.449 26.025 113.499 25.75C113.774 24.375 114.774 23.425 116.249 23.425C116.624 23.425 116.899 23.475 117.149 23.525V20.625C116.899 20.575 116.724 20.55 116.424 20.55C115.124 20.55 113.699 21.425 113.099 23.15H112.999L112.899 20.825H110.224C110.299 21.925 110.324 23.1 110.324 24.75V33ZM119.235 33H122.335V25.85C122.335 25.5 122.36 25.125 122.46 24.85C122.785 23.925 123.635 23.05 124.86 23.05C126.535 23.05 127.185 24.375 127.185 26.125V33H130.26V25.775C130.26 21.925 128.06 20.55 125.935 20.55C123.91 20.55 122.585 21.7 122.06 22.65H121.985L121.835 20.825H119.135C119.21 21.875 119.235 23.05 119.235 24.45V33ZM150.417 30.075C149.617 30.45 148.317 30.7 147.067 30.7C143.367 30.7 141.192 28.325 141.192 24.625C141.192 20.575 143.667 18.425 147.092 18.425C148.492 18.425 149.592 18.725 150.392 19.075L151.067 16.625C150.442 16.3 148.992 15.875 146.967 15.875C141.817 15.875 137.967 19.225 137.967 24.775C137.967 29.9 141.217 33.25 146.567 33.25C148.592 33.25 150.192 32.875 150.917 32.5L150.417 30.075ZM153.341 33H156.441V15.25H153.341V33ZM165.287 20.55C161.612 20.55 158.987 23 158.987 27C158.987 30.9 161.637 33.275 165.087 33.275C168.187 33.275 171.337 31.275 171.337 26.8C171.337 23.1 168.912 20.55 165.287 20.55ZM165.212 22.8C167.312 22.8 168.162 24.975 168.162 26.875C168.162 29.325 166.937 31.05 165.187 31.05C163.312 31.05 162.162 29.275 162.162 26.925C162.162 24.9 163.037 22.8 165.212 22.8ZM184.774 20.825H181.699V28.175C181.699 28.525 181.624 28.85 181.524 29.125C181.199 29.9 180.399 30.775 179.174 30.775C177.549 30.775 176.899 29.475 176.899 27.45V20.825H173.824V27.975C173.824 31.95 175.849 33.275 178.074 33.275C180.249 33.275 181.449 32.025 181.974 31.15H182.024L182.174 33H184.874C184.824 32 184.774 30.8 184.774 29.35V20.825ZM196.257 15.25V22.15H196.207C195.657 21.25 194.457 20.55 192.782 20.55C189.857 20.55 187.307 22.975 187.332 27.05C187.332 30.8 189.632 33.275 192.532 33.275C194.307 33.275 195.782 32.425 196.507 31.075H196.557L196.682 33H199.432C199.382 32.175 199.332 30.825 199.332 29.575V15.25H196.257ZM196.257 27.725C196.257 28.05 196.232 28.35 196.157 28.625C195.857 29.95 194.757 30.8 193.507 30.8C191.557 30.8 190.457 29.175 190.457 26.95C190.457 24.675 191.557 22.925 193.532 22.925C194.932 22.925 195.907 23.9 196.182 25.1C196.232 25.35 196.257 25.65 196.257 25.9V27.725Z" fill="#FF6622"></path></svg> 