<?xml version="1.0" encoding="UTF-8"?> <svg xmlns="http://www.w3.org/2000/svg" width="211" height="28" viewBox="0 0 211 28" fill="none"><path d="M5.05227 6.88698C5.05227 4.544 7.39498 3.2173 10.9516 3.2173C13.1814 3.2173 16.1169 3.89482 18.6008 5.5322L19.9556 2.56837C17.6412 1.04409 14.367 0 11.1492 0C5.4191 0 1.58044 2.82264 1.58044 7.1688C1.58044 17.1043 17.1613 13.2379 17.1332 20.5198C17.1332 23.1734 14.6493 24.7825 10.6411 24.7825C7.50808 24.7825 3.97983 23.3713 1.41119 20.8588L0 23.7095C2.59672 26.2215 6.57655 27.9436 10.6128 27.9436C16.5402 27.9436 20.6331 24.9795 20.6331 20.3508C20.6615 10.3019 5.05227 14.028 5.05227 6.88698Z" fill="#8D001C"></path><path d="M53.7418 0.112305V16.4276C53.7418 21.8186 50.5804 24.9515 45.3022 24.9515C40.0523 24.9515 36.7781 21.8186 36.7781 16.4276V0.112305H33.6167V16.4276C33.6167 23.6531 38.02 28 45.3022 28C52.5563 28 56.9032 23.6528 56.9032 16.4276V0.112305H53.7418Z" fill="#8D001C"></path><path d="M109.432 6.88698C109.432 4.544 111.775 3.2173 115.331 3.2173C117.533 3.2173 120.468 3.89482 122.981 5.5322L124.307 2.56837C122.021 1.04409 118.719 0 115.529 0C109.771 0 105.932 2.82264 105.932 7.1688C105.932 17.1043 121.541 13.2379 121.513 20.5198C121.513 23.1734 119.001 24.7825 115.021 24.7825C111.888 24.7825 108.359 23.3713 105.791 20.8588L104.352 23.7095C106.977 26.2215 110.928 27.9436 114.964 27.9436C120.92 27.9436 124.985 24.9795 124.985 20.3508C125.013 10.3019 109.432 14.028 109.432 6.88698Z" fill="#8D001C"></path><path d="M141.92 0.112305H138.73V27.8305H141.92V0.112305Z" fill="#8D001C"></path><path d="M176.017 0.112305L166.42 24.1611L156.88 0.112305H153.464L164.727 27.8305H168.001L179.32 0.112305H176.017Z" fill="#8D001C"></path><path d="M190.974 3.17692H210.268V0.117676H190.974V3.17692ZM190.974 27.8135H210.268V24.8351H190.974V27.8135ZM210.268 12.2727H190.974V15.332H210.268V12.2727Z" fill="#8D001C"></path><path d="M82.6175 0.112305H79.3433L66.8955 27.8305H70.2828L73.3592 20.8304L74.7143 17.7827L80.8957 3.72609L87.1337 17.7827L88.4604 20.8304H88.4885L91.5651 27.8305H95.0089L82.6175 0.112305Z" fill="#0C0C0C"></path></svg> 