<?xml version="1.0" encoding="UTF-8"?> <!-- Generator: Adobe Illustrator 16.0.0, SVG Export Plug-In . SVG Version: 6.00 Build 0) --> <svg xmlns="http://www.w3.org/2000/svg" xmlns:xlink="http://www.w3.org/1999/xlink" version="1.1" id="Layer_1" x="0px" y="0px" width="584.229px" height="162.134px" viewBox="0 0 584.229 162.134" xml:space="preserve"> <g> <path fill-rule="evenodd" clip-rule="evenodd" fill="#007b45" d="M134.03,1c3.765,5.944,8.746,8.69,16.171,8.148 c9.265-0.675,14.809,5.413,14.809,14.84c0.001,40.817,0.002,81.632-0.001,122.45c-0.001,7.511-6.149,13.594-13.732,13.597 c-12.661,0.004-25.323,0.025-37.984-0.011c-5.456-0.016-12.223-6.674-12.226-12.082c-0.024-42.315-0.026-84.631,0.001-126.947 c0.003-5.375,6.864-12.369,12.295-11.905C121.217,9.762,127.856,8.44,132.03,1C132.697,1,133.363,1,134.03,1z M148.011,83.997 c0-17.978,0.007-35.957-0.01-53.937c-0.002-1.785,0.459-4-1.782-4.715c-2.052-0.656-4.294-0.767-6.068,1.034 c-0.818,0.831-1.65,1.646-2.484,2.459c-5.299,5.167-3.938,5.237-9.415-0.131c-0.357-0.35-0.751-0.672-1.055-1.063 c-1.833-2.366-4.27-3.284-7.064-2.384c-3.115,1.002-2.034,3.857-2.038,6.002c-0.058,32.294-0.041,64.59-0.04,96.886 c0,3.329,0.015,6.658,0.001,9.988c-0.014,3.457,1.4,5.112,5.141,4.975c6.151-0.226,12.336-0.366,18.469,0.036 c4.885,0.32,6.599-0.904,6.486-6.217C147.778,119.294,148.012,101.643,148.011,83.997z"></path> <path fill-rule="evenodd" clip-rule="evenodd" fill="#007b45" d="M1,106.024c5.654-3.765,8.295-8.557,8.147-15.825 c-0.468-22.99-0.179-45.994-0.169-68.992C8.98,14.422,14.337,8.986,21.027,8.979c12.833-0.015,25.665-0.023,38.498,0.005 c5.809,0.013,12.424,6.586,12.463,12.356c0.037,5.499,0,11,0.014,16.499c0.004,1.647-0.243,3.36,1.091,4.717 c2.65,2.696,1.5,3.495-1.673,3.459c-5.332-0.059-10.666-0.06-15.999,0.001c-2.8,0.031-3.455-0.416-1.976-3.371 c2.207-4.407,1.583-9.417,1.524-14.235c-0.033-2.625-1.563-3.394-3.909-3.383c-7.333,0.031-14.667,0.07-21.999-0.018 c-3.071-0.036-4.057,1.421-4.051,4.297c0.047,22.165,0.082,44.331-0.027,66.495c-0.02,4.066,3.082,5.737,5.364,7.944 c2.387,2.308,3.182,4.17,0.118,6.311c-4.737,3.311-6.028,7.839-5.521,13.444c0.433,4.794,0.279,9.668,0.032,14.488 c-0.207,4.028,1.493,5.251,5.313,5.12c6.326-0.216,12.678-0.312,18.992,0.033c4.001,0.218,5.333-1.628,5.679-5.077 c0.274-2.731,0.016-5.523-1.469-7.717c-2.817-4.159-0.464-4.342,2.806-4.307c4.833,0.053,9.666-0.004,14.499,0.028 c1.467,0.01,3.912,0.15,2.855,2.107c-3.197,5.917-1.252,12.098-1.563,18.12c-0.39,7.574-6.173,13.747-13.675,13.75 c-12.666,0.007-25.332,0.023-37.998-0.008c-5.671-0.015-11.404-5.704-11.429-11.346c-0.041-9.165-0.463-18.361,0.137-27.487 c0.446-6.779-3.964-9.7-8.123-13.183C1,107.357,1,106.691,1,106.024z"></path> <path fill-rule="evenodd" clip-rule="evenodd" fill="#007b45" d="M380.086,162.036c-0.314-1.87-1.398-3.75,0.779-5.386 c1.682-1.264,1.229-3.329,1.232-5.135c0.017-9.999-0.21-20.006,0.103-29.995c0.151-4.844-0.741-8.815-4.823-11.734 c-2.528-1.808-2.493-3.736,0.016-5.523c4.098-2.919,4.846-6.913,4.807-11.737c-0.201-24.831-0.085-49.663-0.109-74.495 c-0.002-1.793,0.518-3.775-0.871-5.283c-3.464-3.764-1.534-4.709,2.366-4.711c5.167-0.002,10.333,0,15.499,0.002 c1.349,0,2.833-0.063,3.5,1.362c0.621,1.328-0.603,2.113-1.361,2.94c-1.962,2.143-2.146,4.724-2.141,7.459 c0.04,23.666,0.175,47.333-0.092,70.995c-0.061,5.388,0.818,9.781,5.348,13.025c2.719,1.946,3.258,4.082,0.193,6.229 c-4.731,3.313-6,7.844-5.52,13.449c0.44,5.128,0.216,10.328,0.048,15.489c-0.096,2.952,0.802,4.177,3.948,4.118 c8.83-0.163,17.665-0.055,26.498-0.058c1.328,0,2.763,0.193,3.804-0.828c3.295-3.231,4.08-1.518,3.777,1.942 c-0.521,5.973,1.636,12.249-1.988,17.874c-1.334,0-2.668,0-4.001,0c-0.43-2.8-2.654-1.938-4.274-1.953 c-6.568-0.064-13.138,0.003-19.707,0.021c-3.408,0.303-7.175-1.257-10.026,1.932C391.421,162.036,385.754,162.036,380.086,162.036z "></path> <path fill-rule="evenodd" clip-rule="evenodd" fill="#FEFDFD" d="M407.116,160.104c6.569-0.019,13.139-0.086,19.707-0.021 c1.62,0.016,3.845-0.847,4.274,1.953c-7.335,0-14.671,0-22.005,0C408.434,161.393,407.774,160.748,407.116,160.104z"></path> <path fill-rule="evenodd" clip-rule="evenodd" fill="#FEFEFE" d="M407.116,160.104c0.658,0.644,1.317,1.288,1.977,1.932 c-4.001,0-8.002,0-12.003,0C399.941,158.848,403.708,160.407,407.116,160.104z"></path> <path fill-rule="evenodd" clip-rule="evenodd" fill="#007b45" d="M315.652,8.982c3.167-0.003,6.333-0.016,9.5,0.002 c2.101,0.012,3.66,0.551,1.564,2.758c-1.772,1.866-1.422,3.656-0.984,5.941c6.57,34.302,12.858,68.658,19.546,102.937 c2.028,10.399,4.202,20.769,5.952,31.221c0.19,1.138,0.557,2.28,1.04,3.329c2.248,4.884,2.272,4.875-3.033,4.879 c-5,0.004-10.002,0.004-15.002-0.004c-2.298-0.003-4.006-0.417-1.671-2.972c1.084-1.187,1.777-2.501,1.476-4.064 c-1.318-6.826-2.42-13.719-4.237-20.414c-0.794-2.93-3.921-1.368-6.084-1.215c-0.427,0.03-0.837,0.507-1.226,0.814 c-2.204,1.735-3.594,5.217-6.318,5.313c-2.786,0.098-4.155-3.46-6.353-5.171c-4.134-3.221-8.829-1.46-9.798,3.627 c-0.897,4.714-1.967,9.396-2.76,14.127c-0.407,2.429-0.748,4.953,1.341,7.042c1.838,1.839,1.292,2.898-1.272,2.905 c-6.167,0.015-12.334,0.033-18.5-0.02c-1.232-0.011-3.344,0.026-1.934-2.064c3.89-5.775,3.809-12.574,5.036-18.963 c5.624-29.257,10.783-58.601,16.867-87.771c2.298-11.014,4.229-22.107,6.181-33.189c0.399-2.267,1.561-4.614-0.949-6.884 c-1.727-1.563,0.205-2.123,1.619-2.145C308.984,8.95,312.318,8.985,315.652,8.982z M315.888,57.05 c-0.822,1.316-1.229,1.698-1.313,2.14c-3.266,17.364-6.414,34.751-9.818,52.088c-0.662,3.378,1.224,2.789,2.997,2.625 c1.616-0.149,2.48-1.574,3.532-2.604c5.376-5.263,4.109-5.371,9.427-0.14c0.355,0.35,0.69,0.722,1.064,1.051 c0.971,0.853,1.861,2.237,3.37,1.433c1.482-0.791,0.953-2.339,0.73-3.59c-1.245-6.989-2.53-13.972-3.852-20.947 C320.063,78.737,318.06,68.379,315.888,57.05z"></path> <path fill-rule="evenodd" clip-rule="evenodd" fill="#007b45" d="M196.232,10.104c1.749-1.635,3.316-1.098,4.726-1.102 c16.499-0.043,32.998-0.044,49.496-0.019c6.016,0.009,11.614,5.633,11.621,11.672c0.021,19.666,0.025,39.33-0.004,58.996 c-0.008,5.793-6.638,12.322-12.482,12.341c-9.499,0.03-18.998-0.007-28.498,0.015c-4.774,0.011-6.77,3.507-4.479,7.807 c0.229,0.433,0.615,0.781,0.932,1.168c5.039,6.167,5.1,6.22,0.115,11.896c-1.356,1.543-1.622,3.152-1.617,5.032 c0.028,11.333,0.009,22.665,0.022,33.998c0.002,1.48-0.305,3.094,0.822,4.307c4.029,4.337,0.312,3.807-2.399,3.825 c-5.166,0.035-10.333,0.02-15.499,0c-2.046-0.008-3.728-0.517-1.59-2.732c1.747-1.81,1.652-3.868,1.65-6.03 c-0.008-10.499-0.257-21.008,0.117-31.493c0.157-4.407-1.573-7.308-4.693-9.779c-2.582-2.044-2.739-3.978-0.005-5.913 c3.954-2.8,4.714-6.613,4.675-11.292c-0.207-24.83-0.09-49.662-0.107-74.493C199.032,15.251,199.783,11.96,196.232,10.104z M245.082,50.521c0-6.821-0.099-13.644,0.047-20.461c0.062-2.919-0.769-4.208-3.929-4.129c-7.149,0.18-14.307,0.146-21.458,0.014 c-2.85-0.053-3.744,1.06-3.726,3.815c0.09,13.807,0.118,27.617-0.017,41.422c-0.031,3.22,1.332,3.917,4.188,3.862 c6.985-0.135,13.977-0.164,20.959,0.011c3.096,0.077,4.055-1.083,3.985-4.073C244.973,64.165,245.082,57.342,245.082,50.521z"></path> <path fill-rule="evenodd" clip-rule="evenodd" fill="#007b45" d="M464.229,158.878c3.636-2.248,3.963-5.584,3.917-9.232 c-0.121-9.663-0.249-19.334,0.053-28.988c0.137-4.362-0.844-7.799-4.387-10.409c-2.678-1.973-3.288-4.104-0.202-6.242 c4.032-2.794,4.615-6.701,4.58-11.324c-0.182-24.491-0.085-48.985-0.085-73.478c0-2.158,0.354-4.454-1.073-6.279 c-2.513-3.212-1.538-4.106,2.18-3.991c5.327,0.164,10.662,0.043,15.994,0.047c2.167,0.002,3.459,0.56,1.647,2.833 c-1.809,2.27-1.761,4.911-1.758,7.601c0.023,24.66,0.111,49.32-0.077,73.978c-0.033,4.339,0.809,7.802,4.367,10.412 c2.682,1.966,3.295,4.107,0.206,6.239c-4.047,2.795-4.803,6.704-4.557,11.334c0.309,5.814,0.169,11.661,0.035,17.489 c-0.064,2.813,0.557,4.3,3.827,4.239c8.994-0.167,17.994-0.051,26.991-0.069c0.821-0.002,1.902,0.132,2.426-0.313 c5.87-4.978,4.739,0.067,4.782,3.316c0.048,3.665-0.038,7.331,0.017,10.996c0.031,2.084-0.826,3.029-2.959,3.016 c-18.313-0.116-36.627-0.193-54.94-0.296C465.098,159.757,464.982,159.562,464.229,158.878z"></path> <path fill-rule="evenodd" clip-rule="evenodd" fill="#007b45" d="M574.14,57.01c0,12.002,0.187,24.008-0.096,36.002 c-0.106,4.509,0.717,8.138,4.468,10.889c2.351,1.723,3.215,3.523,0.473,5.968c-4.25,3.786-5.292,8.662-4.964,14.344 c0.469,8.141,0.151,16.327,0.103,24.495c-0.019,3.183-0.239,6.255,2.672,8.64c1.762,1.443,1.074,2.65-1.165,2.663 c-6.667,0.038-13.334,0.04-20.002,0.001c-2.272-0.014-2.88-1.248-1.137-2.67c2.925-2.383,2.664-5.473,2.651-8.648 c-0.039-9.334-0.218-18.674,0.076-27.999c0.137-4.344-0.781-7.813-4.352-10.429c-2.661-1.949-3.344-4.084-0.23-6.237 c4.04-2.794,4.608-6.709,4.576-11.331c-0.178-25.167-0.075-50.337-0.103-75.506c-0.002-1.95,0.521-4.056-1.091-5.71 c-2.576-2.644-1.613-3.525,1.643-3.492c5.666,0.057,11.334,0.003,17.001,0.027c0.961,0.004,2.143-0.329,2.778,0.608 c0.747,1.104-0.308,1.836-0.962,2.506c-2.177,2.228-2.38,4.962-2.366,7.876C574.175,31.674,574.14,44.342,574.14,57.01z"></path> </g> </svg> 