<?xml version="1.0" encoding="UTF-8"?> <svg xmlns="http://www.w3.org/2000/svg" width="278" height="25" viewBox="0 0 278 25" fill="none"><path d="M19.1144 0.268036V3.9703H11.8272V24.4919H7.32077V3.9703H0V0.268036H19.1144Z" fill="#00A3D9"></path><path d="M42.4078 24.4919H37.8679V13.9044H26.5098V24.4919H21.9699V0.268036H26.5098V10.688H37.8679V0.268036H42.4078V24.4919Z" fill="#00A3D9"></path><path d="M70.5302 12.38C70.5302 14.1557 70.2343 15.803 69.6424 17.3219C69.0504 18.8296 68.2184 20.1363 67.1463 21.242C66.0741 22.3476 64.7842 23.2132 63.2765 23.8386C61.7688 24.4528 60.0991 24.76 58.2675 24.76C56.4359 24.76 54.7607 24.4528 53.2418 23.8386C51.7341 23.2132 50.4386 22.3476 49.3553 21.242C48.2831 20.1363 47.4511 18.8296 46.8592 17.3219C46.2673 15.803 45.9713 14.1557 45.9713 12.38C45.9713 10.6042 46.2673 8.9625 46.8592 7.45479C47.4511 5.93591 48.2831 4.62364 49.3553 3.51799C50.4386 2.41234 51.7341 1.55238 53.2418 0.938131C54.7607 0.31271 56.4359 0 58.2675 0C60.0991 0 61.7688 0.31271 63.2765 0.938131C64.7842 1.56355 66.0741 2.42909 67.1463 3.53474C68.2184 4.62923 69.0504 5.93591 69.6424 7.45479C70.2343 8.9625 70.5302 10.6042 70.5302 12.38ZM65.9066 12.38C65.9066 11.051 65.7279 9.86154 65.3705 8.81173C65.0243 7.75075 64.5217 6.85171 63.8628 6.1146C63.2039 5.3775 62.3998 4.8135 61.4505 4.42262C60.5123 4.03173 59.4513 3.83628 58.2675 3.83628C57.0837 3.83628 56.0171 4.03173 55.0678 4.42262C54.1185 4.8135 53.3088 5.3775 52.6387 6.1146C51.9798 6.85171 51.4717 7.75075 51.1143 8.81173C50.7569 9.86154 50.5782 11.051 50.5782 12.38C50.5782 13.709 50.7569 14.904 51.1143 15.965C51.4717 17.0148 51.9798 17.9082 52.6387 18.6454C53.3088 19.3713 54.1185 19.9297 55.0678 20.3206C56.0171 20.7115 57.0837 20.9069 58.2675 20.9069C59.4513 20.9069 60.5123 20.7115 61.4505 20.3206C62.3998 19.9297 63.2039 19.3713 63.8628 18.6454C64.5217 17.9082 65.0243 17.0148 65.3705 15.965C65.7279 14.904 65.9066 13.709 65.9066 12.38Z" fill="#00A3D9"></path><path d="M86.2541 14.4405C86.444 14.7979 86.6171 15.172 86.7735 15.5629C86.941 15.9426 87.1029 16.3279 87.2593 16.7188C87.4156 16.3168 87.5776 15.9203 87.7451 15.5294C87.9126 15.1385 88.0913 14.7644 88.2812 14.407L95.4512 0.988386C95.5405 0.820863 95.6299 0.686845 95.7192 0.586331C95.8197 0.485817 95.9258 0.413223 96.0375 0.368551C96.1603 0.323877 96.2944 0.295956 96.4396 0.284789C96.5847 0.27362 96.7579 0.268036 96.9589 0.268036H100.36V24.4919H96.3893V8.84523C96.3893 8.55486 96.3949 8.23657 96.406 7.89035C96.4284 7.54414 96.4563 7.19234 96.4898 6.83495L89.169 20.5719C89.0015 20.8846 88.7837 21.1303 88.5157 21.309C88.2477 21.4765 87.935 21.5603 87.5776 21.5603H86.9577C86.6003 21.5603 86.2876 21.4765 86.0196 21.309C85.7516 21.1303 85.5338 20.8846 85.3663 20.5719L77.945 6.7847C77.9896 7.15325 78.0176 7.51621 78.0287 7.8736C78.0511 8.21981 78.0622 8.54369 78.0622 8.84523V24.4919H74.0919V0.268036H77.4927C77.6937 0.268036 77.8668 0.27362 78.012 0.284789C78.1572 0.295956 78.2856 0.323877 78.3973 0.368551C78.5201 0.413223 78.6318 0.485817 78.7323 0.586331C78.8328 0.686845 78.9278 0.820863 79.0171 0.988386L86.2541 14.4405Z" fill="#00A3D9"></path><path d="M126.533 24.4919H123.049C122.658 24.4919 122.334 24.397 122.077 24.2071C121.831 24.0061 121.653 23.7604 121.541 23.47L119.732 18.5281H109.697L107.888 23.47C107.798 23.7269 107.62 23.9614 107.352 24.1736C107.095 24.3858 106.776 24.4919 106.397 24.4919H102.895L112.411 0.268036H117.018L126.533 24.4919ZM110.853 15.3451H118.576L115.627 7.28727C115.493 6.92988 115.342 6.51108 115.175 6.03084C115.019 5.53944 114.862 5.00895 114.706 4.43937C114.55 5.00895 114.393 5.53944 114.237 6.03084C114.092 6.52224 113.946 6.95222 113.801 7.32077L110.853 15.3451Z" fill="#00A3D9"></path><path d="M142.011 4.6739C141.888 4.9196 141.743 5.09271 141.575 5.19322C141.419 5.29374 141.229 5.344 141.006 5.344C140.782 5.344 140.531 5.26023 140.252 5.09271C139.973 4.91402 139.643 4.71857 139.264 4.50638C138.884 4.29418 138.437 4.10432 137.923 3.9368C137.421 3.75811 136.823 3.66876 136.131 3.66876C135.505 3.66876 134.958 3.74694 134.489 3.90329C134.031 4.04848 133.64 4.25509 133.316 4.52313C133.004 4.79117 132.769 5.11505 132.613 5.49477C132.456 5.86332 132.378 6.27096 132.378 6.71769C132.378 7.28727 132.535 7.76192 132.847 8.14163C133.171 8.52135 133.596 8.84523 134.121 9.11327C134.645 9.38131 135.243 9.62143 135.913 9.83362C136.583 10.0458 137.264 10.2748 137.957 10.5205C138.66 10.755 139.347 11.0342 140.017 11.3581C140.687 11.6708 141.285 12.0729 141.81 12.5643C142.335 13.0445 142.754 13.6364 143.066 14.34C143.39 15.0436 143.552 15.898 143.552 16.9031C143.552 17.9976 143.362 19.0251 142.983 19.9855C142.614 20.9348 142.067 21.7669 141.341 22.4816C140.626 23.1852 139.749 23.7436 138.711 24.1569C137.672 24.5589 136.483 24.76 135.142 24.76C134.372 24.76 133.612 24.6818 132.864 24.5254C132.116 24.3802 131.395 24.168 130.703 23.8888C130.022 23.6096 129.38 23.2746 128.777 22.8837C128.185 22.4928 127.654 22.0572 127.185 21.577L128.492 19.416C128.615 19.2596 128.76 19.1312 128.927 19.0307C129.106 18.919 129.301 18.8631 129.514 18.8631C129.793 18.8631 130.094 18.9804 130.418 19.2149C130.742 19.4383 131.122 19.6896 131.557 19.9688C132.004 20.248 132.523 20.5049 133.115 20.7394C133.718 20.9628 134.439 21.0744 135.276 21.0744C136.561 21.0744 137.555 20.7729 138.258 20.1698C138.962 19.5556 139.314 18.6789 139.314 17.5397C139.314 16.9031 139.152 16.3838 138.828 15.9817C138.515 15.5797 138.096 15.2446 137.572 14.9766C137.047 14.6974 136.449 14.4629 135.779 14.273C135.109 14.0831 134.428 13.8765 133.735 13.6532C133.043 13.4298 132.362 13.1618 131.691 12.849C131.021 12.5363 130.424 12.1287 129.899 11.6261C129.374 11.1236 128.95 10.4981 128.626 9.74986C128.313 8.99042 128.157 8.05787 128.157 6.95222C128.157 6.06993 128.33 5.20998 128.676 4.37236C129.033 3.53474 129.547 2.79206 130.217 2.1443C130.898 1.49654 131.731 0.977219 132.713 0.586331C133.696 0.195444 134.819 0 136.081 0C137.51 0 138.828 0.223364 140.034 0.670093C141.24 1.11682 142.268 1.74224 143.117 2.54635L142.011 4.6739Z" fill="#00A3D9"></path><path d="M174.505 12.8712C174.505 14.7028 174.231 16.3501 173.684 17.8132C173.137 19.2762 172.366 20.5215 171.372 21.5489C170.378 22.5764 169.189 23.3638 167.804 23.911C166.419 24.4583 164.883 24.7319 163.197 24.7319H154.553V1.02732H163.197C164.883 1.02732 166.419 1.30094 167.804 1.84818C169.189 2.39542 170.378 3.18278 171.372 4.21026C172.366 5.23774 173.137 6.48299 173.684 7.94603C174.231 9.40907 174.505 11.0508 174.505 12.8712ZM172.729 12.8712C172.729 11.2183 172.5 9.74411 172.042 8.4486C171.584 7.15309 170.937 6.0586 170.099 5.16514C169.272 4.27169 168.273 3.59042 167.1 3.12136C165.928 2.65229 164.626 2.41776 163.197 2.41776H156.278V23.3414H163.197C164.626 23.3414 165.928 23.1069 167.1 22.6378C168.273 22.1688 169.272 21.4875 170.099 20.594C170.937 19.7006 171.584 18.6061 172.042 17.3106C172.5 16.0151 172.729 14.5353 172.729 12.8712Z" fill="#9191A3"></path><path d="M182.354 24.7319H180.628V1.02732H182.354V24.7319Z" fill="#9191A3"></path><path d="M200.206 23.6095C201.021 23.6095 201.764 23.5704 202.434 23.4922C203.104 23.4029 203.724 23.2744 204.294 23.1069C204.874 22.9394 205.422 22.7383 205.935 22.5038C206.46 22.2581 206.985 21.9845 207.51 21.6829V15.3003H202.953C202.831 15.3003 202.724 15.2612 202.635 15.183C202.557 15.1049 202.518 15.0155 202.518 14.915V13.9769H209.068V22.4033C208.476 22.8165 207.862 23.1851 207.225 23.509C206.589 23.8328 205.907 24.1065 205.181 24.3298C204.456 24.542 203.674 24.704 202.836 24.8156C201.998 24.9385 201.083 24.9999 200.089 24.9999C198.38 24.9999 196.816 24.7151 195.398 24.1455C193.991 23.5648 192.779 22.7495 191.763 21.6997C190.758 20.6387 189.976 19.36 189.417 17.8634C188.859 16.3669 188.58 14.7028 188.58 12.8712C188.58 11.0396 188.859 9.38115 189.417 7.89578C189.976 6.39923 190.769 5.12605 191.796 4.07624C192.824 3.01526 194.069 2.19998 195.532 1.6304C197.006 1.04965 198.654 0.759277 200.474 0.759277C201.379 0.759277 202.211 0.820703 202.97 0.943554C203.741 1.0664 204.456 1.25068 205.114 1.49638C205.773 1.73091 206.388 2.02687 206.957 2.38425C207.527 2.73047 208.074 3.13253 208.599 3.59042L208.147 4.32753C208.046 4.49505 207.906 4.57881 207.728 4.57881C207.627 4.57881 207.532 4.55647 207.443 4.5118C207.275 4.44479 207.03 4.28844 206.706 4.04274C206.393 3.79704 205.963 3.54017 205.416 3.27213C204.88 3.00409 204.204 2.76397 203.389 2.55178C202.574 2.33958 201.585 2.23348 200.424 2.23348C198.883 2.23348 197.492 2.47919 196.252 2.97059C195.013 3.46199 193.952 4.16559 193.07 5.08138C192.198 5.99718 191.523 7.114 191.042 8.43185C190.573 9.7497 190.339 11.2295 190.339 12.8712C190.339 14.5465 190.579 16.0486 191.059 17.3776C191.539 18.7066 192.21 19.8346 193.07 20.7616C193.941 21.6774 194.979 22.381 196.185 22.8724C197.403 23.3638 198.743 23.6095 200.206 23.6095Z" fill="#9191A3"></path><path d="M217.429 24.7319H215.703V1.02732H217.429V24.7319Z" fill="#9191A3"></path><path d="M240.575 1.02732V2.48477H232.249V24.7319H230.54V2.48477H222.164V1.02732H240.575Z" fill="#9191A3"></path><path d="M260.606 24.7319H259.282C259.126 24.7319 258.997 24.6928 258.897 24.6146C258.796 24.5253 258.718 24.4136 258.662 24.2796L255.865 17.3944H244.222L241.441 24.2796C241.396 24.4024 241.318 24.5085 241.206 24.5979C241.095 24.6872 240.961 24.7319 240.804 24.7319H239.498L249.197 1.02732H250.906L260.606 24.7319ZM244.741 16.1212H255.362L250.521 4.14325C250.442 3.95339 250.364 3.74119 250.286 3.50666C250.208 3.26096 250.13 3.00409 250.052 2.73605C249.973 3.00409 249.895 3.26096 249.817 3.50666C249.739 3.74119 249.661 3.95898 249.582 4.16L244.741 16.1212Z" fill="#9191A3"></path><path d="M266.068 23.2744H277.309V24.7319H264.359V1.02732H266.068V23.2744Z" fill="#9191A3"></path></svg> 