<?xml version="1.0" encoding="UTF-8"?> <svg xmlns="http://www.w3.org/2000/svg" width="254" height="44" viewBox="0 0 254 44" fill="none"><g clip-path="url(#clip0)"><path fill-rule="evenodd" clip-rule="evenodd" d="M33.77 40.59C29.646 43.2015 24.7706 44.3673 19.9113 43.9039C15.052 43.4404 10.4848 41.374 6.92882 38.0301C3.3728 34.6861 1.02991 30.2544 0.268977 25.4327C-0.491951 20.611 0.372308 15.6732 2.72569 11.3967C5.07907 7.12008 8.78792 3.74763 13.2683 1.81025C17.7487 -0.127139 22.7462 -0.519425 27.4741 0.695149C32.2019 1.90972 36.3915 4.66217 39.3833 8.51917C42.3752 12.3762 43.9993 17.1186 44 22H39.91C39.9077 18.0918 38.6264 14.2917 36.2617 11.1801C33.897 8.06846 30.5789 5.81623 26.8141 4.76733C23.0493 3.71843 19.0447 3.93049 15.4117 5.37114C11.7787 6.8118 8.71705 9.40186 6.69422 12.7458C4.6714 16.0898 3.79857 20.0039 4.20903 23.8905C4.61948 27.7771 6.29066 31.4226 8.96737 34.2703C11.6441 37.1179 15.1792 39.0113 19.033 39.6613C22.8868 40.3113 26.8474 39.6822 30.31 37.87C28.1685 35.8194 26.4653 33.3557 25.3033 30.6279C24.1414 27.9001 23.5449 24.9649 23.55 22H27.64C27.64 26.75 29.527 31.3055 32.8857 34.6643C36.2445 38.0231 40.8 39.91 45.55 39.91V44C41.379 44.0067 37.2925 42.8238 33.77 40.59V40.59ZM31.73 22C31.73 25.6653 33.1861 29.1805 35.7778 31.7722C38.3696 34.364 41.8847 35.82 45.55 35.82V31.73C42.9695 31.73 40.4946 30.7049 38.6699 28.8801C36.8452 27.0554 35.82 24.5805 35.82 22C35.82 19.2667 35.0095 16.5947 33.4909 14.322C31.9724 12.0493 29.814 10.278 27.2887 9.23198C24.7634 8.18597 21.9847 7.91229 19.3039 8.44554C16.6231 8.97879 14.1606 10.295 12.2278 12.2278C10.2951 14.1605 8.97883 16.623 8.44558 19.3038C7.91233 21.9847 8.18601 24.7634 9.23202 27.2887C10.278 29.814 12.0494 31.9723 14.3221 33.4909C16.5947 35.0095 19.2667 35.82 22 35.82V31.73C20.0756 31.73 18.1944 31.1593 16.5943 30.0902C14.9942 29.021 13.7471 27.5014 13.0107 25.7235C12.2742 23.9456 12.0816 21.9892 12.457 20.1018C12.8324 18.2143 13.7591 16.4806 15.1199 15.1198C16.4806 13.7591 18.2144 12.8324 20.1018 12.457C21.9892 12.0815 23.9456 12.2742 25.7235 13.0106C27.5015 13.7471 29.0211 14.9942 30.0902 16.5943C31.1594 18.1944 31.73 20.0756 31.73 22V22Z" fill="url(#paint0_linear)"></path><path d="M190.41 10.47H182.73V6.82996H202.38V10.47H194.71V30H190.41V10.47ZM129.14 22.38L134.46 30H129.83L125.1 23.22C124.9 23.22 124.6 23.22 124.21 23.22H119V30H114.7V6.82996H124.23C126.027 6.79338 127.813 7.13404 129.47 7.82996C130.87 8.42083 132.063 9.41243 132.9 10.68C133.715 12.0002 134.128 13.5289 134.09 15.08C134.13 16.6751 133.684 18.2447 132.81 19.58C131.907 20.8712 130.624 21.8497 129.14 22.38V22.38ZM128.28 18.49C128.769 18.0702 129.154 17.5432 129.406 16.9499C129.657 16.3566 129.768 15.7132 129.73 15.07C129.768 14.4282 129.657 13.7863 129.406 13.1946C129.154 12.6029 128.769 12.0777 128.28 11.66C127.032 10.7837 125.521 10.3635 124 10.47H119V19.7H124C125.524 19.8099 127.039 19.3817 128.28 18.49V18.49ZM156.59 26.38H143.52V20H154.7V16.46H143.52V10.46H156.12V6.82996H139.22V30H156.59V26.38ZM82.4801 29.92L84.4801 32.31C83.7412 33.1661 82.8227 33.8489 81.7901 34.31C80.7317 34.7757 79.5863 35.0109 78.4301 35C76.8926 35.0468 75.3683 34.7027 74.0001 34C72.3169 32.9873 70.7908 31.734 69.4701 30.28C67.4268 30.1334 65.4498 29.4916 63.7101 28.41C62.0325 27.3794 60.6535 25.9281 59.7101 24.2C58.751 22.4297 58.2621 20.4431 58.2901 18.43C58.2856 16.2714 58.8774 14.1536 60.0001 12.31C61.0546 10.4881 62.5955 8.99576 64.4501 7.99996C66.4261 6.9873 68.6147 6.45917 70.8351 6.45917C73.0555 6.45917 75.244 6.9873 77.2201 7.99996C79.0686 8.98046 80.6116 10.4508 81.6801 12.25C82.7717 14.1025 83.3322 16.2199 83.3001 18.37C83.318 20.1232 82.9457 21.8584 82.2101 23.45C81.5184 24.9889 80.4938 26.3551 79.2101 27.45C77.8856 28.5528 76.3413 29.3608 74.6801 29.82C75.2126 30.4224 75.8494 30.9238 76.5601 31.3C77.18 31.613 77.8656 31.7741 78.5601 31.77C79.308 31.7611 80.0452 31.5912 80.7216 31.272C81.398 30.9528 81.9978 30.4916 82.4801 29.92ZM75.0001 25.51C76.2211 24.8286 77.2287 23.821 77.9101 22.6C78.6372 21.3241 79.0133 19.8784 79.0001 18.41C79.0226 16.9474 78.6569 15.505 77.9401 14.23C77.2542 12.9995 76.2352 11.9875 75.0001 11.31C73.7162 10.6271 72.2843 10.27 70.8301 10.27C69.3759 10.27 67.944 10.6271 66.6601 11.31C65.4405 11.9979 64.4338 13.0081 63.7501 14.23C63.0382 15.507 62.6727 16.948 62.6901 18.41C62.6728 19.8751 63.0382 21.3193 63.7501 22.6C64.4369 23.8169 65.4431 24.8232 66.6601 25.51C67.944 26.1928 69.3759 26.55 70.8301 26.55C72.2843 26.55 73.7162 26.1928 75.0001 25.51V25.51ZM108.31 6.82996H104.07V19.73C104.07 24.2766 102.117 26.55 98.2101 26.55C94.3034 26.55 92.3401 24.2766 92.3201 19.73V6.82996H88.0001V19.9C88.0001 23.25 88.9001 25.83 90.6801 27.63C91.6804 28.5605 92.859 29.2786 94.1446 29.7409C95.4302 30.2033 96.7962 30.4003 98.1601 30.32C101.36 30.32 103.847 29.4233 105.62 27.63C107.393 25.8366 108.283 23.26 108.29 19.9L108.31 6.82996ZM253.64 30H249L244.27 23.22C244.07 23.22 243.77 23.22 243.38 23.22H238.15V30H233.85V6.82996H243.38C245.177 6.79338 246.963 7.13404 248.62 7.82996C250.018 8.41835 251.209 9.41071 252.04 10.68C252.861 11.9976 253.275 13.5282 253.23 15.08C253.274 16.6741 252.831 18.2438 251.96 19.58C251.062 20.8742 249.782 21.8564 248.3 22.39L253.64 30ZM247.45 18.5C247.94 18.0807 248.327 17.554 248.58 16.9608C248.834 16.3676 248.946 15.7239 248.91 15.08C248.947 14.4374 248.835 13.7949 248.581 13.2032C248.328 12.6115 247.941 12.0867 247.45 11.67C246.209 10.7959 244.705 10.3757 243.19 10.48H238.19V19.7H243.19C244.708 19.8077 246.215 19.3795 247.45 18.49V18.5ZM183.57 30H179.07L176.76 24.64H165.18L162.89 30H158.46L168.88 6.82996H173.12L183.57 30ZM175.33 21.27L171 11.13L166.67 21.26L175.33 21.27ZM227.33 12.27C228.422 14.1225 228.982 16.2399 228.95 18.39C228.982 20.54 228.422 22.6574 227.33 24.51C226.261 26.3118 224.714 27.7826 222.86 28.76C220.884 29.7726 218.695 30.3008 216.475 30.3008C214.255 30.3008 212.066 29.7726 210.09 28.76C208.234 27.7816 206.687 26.3068 205.62 24.5C204.536 22.6553 203.975 20.5496 204 18.41C203.972 16.2667 204.532 14.1569 205.62 12.31C206.677 10.4868 208.222 8.99426 210.08 7.99996C212.056 6.9873 214.245 6.45917 216.465 6.45917C218.685 6.45917 220.874 6.9873 222.85 7.99996C224.709 8.98818 226.256 10.4734 227.32 12.29L227.33 12.27ZM224.61 18.39C224.646 16.9333 224.302 15.4925 223.61 14.21C222.925 12.9855 221.915 11.9747 220.69 11.29C219.408 10.6071 217.978 10.25 216.525 10.25C215.072 10.25 213.642 10.6071 212.36 11.29C211.136 11.9719 210.128 12.9836 209.45 14.21C208.733 15.485 208.368 16.9274 208.39 18.39C208.368 19.8557 208.733 21.3012 209.45 22.58C210.131 23.801 211.139 24.8086 212.36 25.49C213.642 26.1728 215.072 26.53 216.525 26.53C217.978 26.53 219.408 26.1728 220.69 25.49C221.912 24.8063 222.922 23.7995 223.61 22.58C224.295 21.2988 224.636 19.8621 224.6 18.41L224.61 18.39ZM98.3401 37.6C98.7832 37.3647 99.2784 37.2444 99.7801 37.25C100.172 37.2454 100.561 37.3252 100.92 37.484C101.279 37.6427 101.599 37.8766 101.86 38.17L102.79 37.29C102.434 36.8537 101.978 36.5105 101.46 36.29C100.902 36.0784 100.307 35.9798 99.7101 36C98.9685 35.9881 98.2359 36.1636 97.5801 36.51C96.9579 36.8393 96.4388 37.3342 96.0801 37.94C95.7233 38.5679 95.5357 39.2777 95.5357 40C95.5357 40.7222 95.7233 41.432 96.0801 42.06C96.4362 42.6677 96.956 43.1632 97.5801 43.49C98.2313 43.8389 98.9614 44.0145 99.7001 44C100.3 44.0074 100.894 43.8952 101.45 43.67C101.968 43.4451 102.427 43.1028 102.79 42.67L101.86 41.78C101.599 42.0733 101.279 42.3073 100.92 42.466C100.561 42.6247 100.172 42.7045 99.7801 42.7C99.2784 42.7056 98.7832 42.5852 98.3401 42.35C97.9195 42.1171 97.5729 41.7706 97.3401 41.35C97.1149 40.9358 96.9979 40.4714 97.0001 40C96.9918 39.5062 97.1161 39.0193 97.3601 38.59C97.5902 38.1767 97.9291 37.8343 98.3401 37.6V37.6ZM182 37.6C182.443 37.3647 182.938 37.2444 183.44 37.25C183.832 37.2454 184.221 37.3252 184.58 37.484C184.939 37.6427 185.259 37.8766 185.52 38.17L186.45 37.29C186.096 36.8516 185.639 36.508 185.12 36.29C184.564 36.0647 183.97 35.9526 183.37 35.96C182.628 35.9481 181.896 36.1236 181.24 36.47C180.62 36.8022 180.102 37.2964 179.74 37.9C179.386 38.5288 179.2 39.2383 179.2 39.96C179.2 40.6816 179.386 41.3911 179.74 42.02C180.092 42.6274 180.609 43.123 181.23 43.45C181.883 43.804 182.617 43.9831 183.36 43.97C183.96 43.9774 184.554 43.8652 185.11 43.64C185.628 43.4151 186.087 43.0728 186.45 42.64L185.52 41.75C185.259 42.0433 184.939 42.2772 184.58 42.436C184.221 42.5947 183.832 42.6745 183.44 42.67C182.938 42.6755 182.443 42.5552 182 42.32C181.579 42.0871 181.233 41.7406 181 41.32C180.756 40.887 180.632 40.3969 180.64 39.9C180.632 39.4062 180.756 38.9193 181 38.49C181.25 38.1108 181.595 37.8039 182 37.6V37.6ZM212.07 40.53H215.83V39.34H212.07V37.34H216.31V36.1H210.62V43.89H216.46V42.68H212.07V40.53ZM205.38 41.33L207.17 43.89H205.61L204 41.61H202V43.88H200.55V36.1H203.76C204.363 36.0867 204.963 36.1991 205.52 36.43C205.999 36.6349 206.401 36.9846 206.67 37.43C206.95 37.872 207.092 38.387 207.08 38.91C207.091 39.4449 206.941 39.9708 206.65 40.42C206.331 40.8477 205.888 41.1658 205.38 41.33V41.33ZM205.09 40C205.246 39.8515 205.369 39.673 205.454 39.4754C205.538 39.2777 205.582 39.065 205.582 38.85C205.582 38.635 205.538 38.4222 205.454 38.2246C205.369 38.0269 205.246 37.8484 205.09 37.7C204.67 37.405 204.162 37.2637 203.65 37.3H202V40.41H203.69C204.19 40.4341 204.683 40.2897 205.09 40V40ZM195.09 40.42C195.09 41.95 194.44 42.71 193.09 42.71C191.74 42.71 191.09 41.95 191.09 40.42V36.1H189.64V40.49C189.608 40.9615 189.672 41.4346 189.826 41.8813C189.981 42.3279 190.224 42.7389 190.54 43.09C190.876 43.4049 191.273 43.648 191.706 43.8045C192.14 43.9609 192.6 44.0275 193.06 44C193.518 44.0284 193.978 43.9624 194.41 43.8058C194.841 43.6493 195.236 43.4056 195.57 43.09C195.887 42.7389 196.129 42.3279 196.284 41.8813C196.438 41.4346 196.502 40.9615 196.47 40.49V36.1H195.04L195.09 40.42ZM155.78 37.3H158.36V43.87H159.81V37.32H162.39V36.1H155.78V37.3ZM111.02 41.3L112.81 43.86H111.25L109.66 41.58H107.6V43.85H106.15V36.1H109.36C109.963 36.0867 110.563 36.1991 111.12 36.43C111.599 36.6377 112.004 36.9865 112.28 37.43C112.552 37.875 112.691 38.3885 112.68 38.91C112.691 39.4449 112.541 39.9708 112.25 40.42C111.937 40.8444 111.5 41.1621 111 41.33L111.02 41.3ZM110.73 40C110.886 39.8515 111.009 39.673 111.094 39.4754C111.178 39.2777 111.222 39.065 111.222 38.85C111.222 38.635 111.178 38.4222 111.094 38.2246C111.009 38.0269 110.886 37.8484 110.73 37.7C110.31 37.405 109.802 37.2637 109.29 37.3H107.6V40.41H109.29C109.803 40.4433 110.312 40.2985 110.73 40V40ZM145.73 40.51H149.5V39.34H145.73V37.34H150V36.1H144.31V43.89H150.15V42.68H145.75L145.73 40.51ZM129.53 36.08L133 43.89H131.49L130.71 42.08H126.82L126.05 43.89H124.56L128.06 36.1L129.53 36.08ZM130.27 40.93L128.8 37.52L127.34 41L130.27 40.93ZM134.61 37.3H137.2V43.87H138.64V37.32H141.23V36.1H134.6L134.61 37.3ZM117.72 40.51H121.48V39.34H117.72V37.34H122V36.1H116.31V43.89H122.15V42.68H117.76L117.72 40.51ZM172.64 37.91C172.994 38.5388 173.18 39.2483 173.18 39.97C173.18 40.6916 172.994 41.4011 172.64 42.03C172.281 42.6357 171.762 43.1306 171.14 43.46C170.475 43.8021 169.738 43.9805 168.99 43.9805C168.242 43.9805 167.505 43.8021 166.84 43.46C166.216 43.1332 165.696 42.6377 165.34 42.03C164.979 41.4052 164.789 40.6964 164.789 39.975C164.789 39.2535 164.979 38.5448 165.34 37.92C165.699 37.3115 166.217 36.8133 166.84 36.48C167.507 36.1449 168.243 35.9703 168.99 35.9703C169.737 35.9703 170.473 36.1449 171.14 36.48C171.759 36.8192 172.274 37.3204 172.63 37.93L172.64 37.91ZM171.72 40C171.727 39.5064 171.603 39.0198 171.36 38.59C171.127 38.1693 170.781 37.8228 170.36 37.59C169.929 37.3623 169.448 37.2433 168.96 37.2433C168.472 37.2433 167.992 37.3623 167.56 37.59C167.137 37.8201 166.79 38.1673 166.56 38.59C166.324 39.0224 166.2 39.5072 166.2 40C166.2 40.4927 166.324 40.9776 166.56 41.41C166.787 41.8351 167.135 42.1831 167.56 42.41C167.992 42.6377 168.472 42.7567 168.96 42.7567C169.448 42.7567 169.929 42.6377 170.36 42.41C170.783 42.1798 171.13 41.8326 171.36 41.41C171.603 40.9801 171.727 40.4935 171.72 40V40Z" fill="url(#paint1_linear)"></path></g><defs><linearGradient id="paint0_linear" x1="22.77" y1="44.32" x2="22.77" y2="-9.11719e-06" gradientUnits="userSpaceOnUse"><stop stop-color="#2496D4"></stop><stop offset="1" stop-color="#4BB682"></stop></linearGradient><linearGradient id="paint1_linear" x1="155.965" y1="6.45917" x2="155.965" y2="44.0064" gradientUnits="userSpaceOnUse"><stop stop-color="#4AB583"></stop><stop offset="1" stop-color="#2496D3"></stop></linearGradient><clipPath id="clip0"><rect width="253.64" height="44" fill="white"></rect></clipPath></defs></svg> 