<?xml version="1.0" encoding="UTF-8"?> <svg xmlns="http://www.w3.org/2000/svg" width="36" height="36" viewBox="0 0 36 36" fill="none"><rect x="0.5" y="0.5" width="35" height="35" rx="17.5" stroke="#00A3D9"></rect><path d="M14.6094 23V14.8242H12.0664V23H14.6094ZM13.3242 13.7305C14.1445 13.7305 14.8008 13.0469 14.8008 12.2266C14.8008 11.4336 14.1445 10.7773 13.3242 10.7773C12.5312 10.7773 11.875 11.4336 11.875 12.2266C11.875 13.0469 12.5312 13.7305 13.3242 13.7305ZM24.0977 23H24.125V18.5156C24.125 16.3281 23.6328 14.6328 21.0625 14.6328C19.832 14.6328 19.0117 15.3164 18.6562 15.9453H18.6289V14.8242H16.1953V23H18.7383V18.9531C18.7383 17.8867 18.9297 16.875 20.2422 16.875C21.5547 16.875 21.582 18.0781 21.582 19.0352V23H24.0977Z" fill="#F8F9FD"></path></svg> 