<?xml version="1.0" encoding="UTF-8"?> <!-- Generator: Adobe Illustrator 16.0.0, SVG Export Plug-In . SVG Version: 6.00 Build 0) --> <svg xmlns="http://www.w3.org/2000/svg" xmlns:xlink="http://www.w3.org/1999/xlink" version="1.1" id="Layer_1" x="0px" y="0px" width="36px" height="36px" viewBox="0 0 36 36" xml:space="preserve"> <path fill="none" stroke="#00A3D9" d="M18,0.5L18,0.5c9.665,0,17.5,7.835,17.5,17.5l0,0c0,9.665-7.835,17.5-17.5,17.5l0,0 C8.335,35.5,0.5,27.665,0.5,18l0,0C0.5,8.335,8.335,0.5,18,0.5z"></path> <path fill="#FFFFFF" d="M24.141,18.146c0,3.561-2.439,6.095-6.04,6.095c-3.453,0-6.241-2.788-6.241-6.241 c0-3.452,2.788-6.241,6.241-6.241c1.681,0,3.096,0.617,4.186,1.634l-1.699,1.633c-2.222-2.144-6.354-0.534-6.354,2.974 c0,2.177,1.739,3.941,3.868,3.941c2.472,0,3.397-1.771,3.543-2.69h-3.543v-2.146h5.941C24.101,17.424,24.141,17.731,24.141,18.146z"></path> </svg> 