<?xml version="1.0" encoding="UTF-8"?> <svg xmlns="http://www.w3.org/2000/svg" width="283" height="60" viewBox="0 0 283 60" fill="none"><path fill-rule="evenodd" clip-rule="evenodd" d="M146.88 17.5226C149.758 17.5433 152.615 17.9935 155.435 18.5769L156.324 18.7652V22.4355C152.358 20.8806 148.021 20.1801 143.627 20.6854C141.689 20.9081 139.206 21.5467 139.507 23.0097C139.789 24.3741 142.309 24.7347 143.992 25.1366C147.858 26.0622 151.967 26.2965 155.479 28.2212C157.512 29.3352 158.943 31.7928 157.661 34.0368C155.911 37.1054 151.409 37.5004 147.897 37.6313C144.224 37.7692 140.538 37.4063 136.955 36.4783L136.682 36.4048L135.965 36.2096V32.3647C140.166 34.3767 145.079 35.1163 150.212 34.4502C152.05 34.2137 154.739 33.8278 154.477 31.9306C154.236 30.1667 150.849 29.7027 148.216 29.1584C144.897 28.4739 141.418 28.15 138.478 26.5652C136.985 25.7613 135.745 24.3258 135.846 22.6239C135.921 21.3537 136.677 20.1892 137.745 19.4474C140.336 17.6444 143.79 17.5134 146.88 17.5226ZM222.872 37.3075H219.282V17.8488C223.27 17.8488 227.255 17.8419 231.24 17.8488C234.703 17.8671 238.613 18.0302 240.512 20.7864C242.145 23.1521 241.417 26.8845 238.675 28.3591C238.075 28.6806 237.432 28.908 236.777 29.0849L236.633 29.1239L244.465 37.3075H239.747L232.655 29.643C232.531 29.6476 222.872 29.6568 222.872 29.6568V37.3075ZM271.087 37.3075H267.5V29.2732L255.995 17.8488H260.632C261.353 18.5677 262.111 19.3233 262.888 20.0951L267.619 24.8036C268.396 25.5753 269.153 26.331 269.875 27.0499C269.454 26.6318 269.967 25.8234 270.251 25.5271L277.939 17.8488H282.594L271.087 29.2732V37.3075ZM116.178 37.3075H112.588V17.8488H116.178V37.3075ZM83.246 37.3075H79.3575L67.3428 17.8488H71.4518C74.7523 23.1981 78.6225 29.4638 81.923 34.8131C81.5509 34.2091 82.008 32.8723 82.4237 32.1718L91.2665 17.8488H95.3641L83.246 37.3075ZM202.346 37.3075H198.262L194.718 31.8273C194.176 32.305 193.464 32.5944 192.685 32.5944H181.072L179.366 35.2312L178.022 37.3075H173.938L186.53 17.8488H189.754L202.346 37.3075ZM193.223 29.5144L188.149 21.6638C187.377 22.8582 185.204 26.2138 183.068 29.5144H193.223ZM232.319 20.9472H222.895V26.5377H232.319C236.862 26.5377 237.714 25.2928 237.749 23.7447V23.7401C237.714 22.1921 236.862 20.9472 232.319 20.9472Z" fill="#9BD6AE"></path><path fill-rule="evenodd" clip-rule="evenodd" d="M45.4795 26.3768C45.4795 26.3768 25.3455 58.8539 24.6427 59.9885C24.6404 59.9954 24.6312 59.9977 24.6243 60C24.6174 60 24.6082 59.9954 24.6036 59.9885C23.8617 58.8929 2.75619 27.7342 2.75619 27.7342C2.75619 27.7342 3.23623 27.7158 3.59913 27.7043C3.85178 27.6951 4.08835 27.8169 4.23075 28.0236C6.12334 30.8188 19.3048 50.2775 21.8038 53.9662C21.8107 53.9777 21.8244 53.98 21.8359 53.9731C21.8474 53.9662 21.8497 53.9525 21.8451 53.941C19.4771 49.8871 6.46786 27.6033 6.46786 27.6033C6.46786 27.6033 6.88818 27.5872 7.23041 27.5757C7.49914 27.5665 7.75179 27.7043 7.8873 27.9363C9.4124 30.5478 18.3861 45.9182 20.3177 49.2302C20.3246 49.2417 20.3407 49.2463 20.3522 49.2394C20.3637 49.2348 20.3683 49.2187 20.3614 49.2072C18.5308 45.5254 9.56399 27.493 9.56399 27.493C9.56399 27.493 9.93148 27.4792 10.253 27.4677C10.5401 27.4586 10.8066 27.617 10.9329 27.8743C12.0951 30.2079 17.7361 41.5542 19.1555 44.4068C19.1601 44.4183 19.1739 44.4229 19.1877 44.4183C19.1992 44.4114 19.2038 44.3977 19.1992 44.3862C17.8555 41.1568 12.1295 27.4034 12.1295 27.4034C12.1295 27.4034 12.4511 27.392 12.752 27.3805C13.0552 27.369 13.3354 27.5481 13.4525 27.8306C14.261 29.7738 17.364 37.227 18.3172 39.5146C18.3218 39.5261 18.3356 39.533 18.3471 39.5284C18.3608 39.5238 18.3654 39.51 18.3631 39.4962C17.4559 36.8296 14.2265 27.3276 14.2265 27.3276C14.2265 27.3276 14.5091 27.3185 14.7893 27.3093C15.1108 27.2978 15.4025 27.4976 15.5059 27.8031C16.2363 29.9575 19.0269 38.1664 19.2244 38.7498C19.2267 38.7589 19.2336 38.7635 19.2405 38.7658C19.2497 38.7681 19.2566 38.7658 19.2635 38.7612C19.8538 38.2399 30.3043 29.0204 32.4794 27.1026C32.7344 26.8775 33.0605 26.7488 33.4005 26.7374C33.8759 26.7236 34.5029 26.7052 34.5029 26.7052C34.5029 26.7052 21.1078 39.1356 19.2038 40.9019C19.0706 41.0282 19.0269 41.2234 19.0981 41.3911C19.3485 41.9906 19.9158 43.3572 20.01 43.5846C20.0145 43.5915 20.0191 43.5961 20.0283 43.5984C20.0352 43.5984 20.0421 43.5961 20.049 43.5915C20.699 42.9346 34.0872 29.4292 36.4897 27.0061C36.724 26.7672 37.0432 26.6294 37.3786 26.6202C37.7438 26.6087 38.1687 26.595 38.1687 26.595C38.1687 26.595 22.1575 43.5846 20.134 45.7321C20.0077 45.8653 19.9778 46.0629 20.0605 46.2282C20.3499 46.8093 21.0091 48.1323 21.117 48.3528C21.1216 48.3597 21.1285 48.3643 21.1354 48.3666C21.1423 48.3666 21.1515 48.3643 21.1561 48.3574C21.8313 47.5788 37.3051 29.7232 39.742 26.9096C39.9464 26.673 40.2427 26.5329 40.5551 26.5238C40.8353 26.5146 41.1293 26.5077 41.1293 26.5077C41.1293 26.5077 23.4391 47.9922 21.3835 50.4888C21.2686 50.6289 21.2525 50.8288 21.3444 50.9872C21.6706 51.5477 22.417 52.8247 22.5411 53.0383C22.5457 53.0452 22.5525 53.0475 22.5594 53.0498C22.5686 53.0498 22.5755 53.0452 22.5801 53.0406C23.2554 52.1449 40.0658 29.8978 42.3971 26.8132C42.5648 26.5904 42.8266 26.4571 43.1045 26.448C43.3204 26.4411 43.5318 26.4342 43.5318 26.4342C43.5318 26.4342 24.9711 52.3309 22.9499 55.1491C22.8442 55.2984 22.8396 55.4982 22.943 55.6498C23.3082 56.1873 24.1374 57.4138 24.2752 57.6159C24.2798 57.6228 24.2866 57.6274 24.2935 57.6274C24.3027 57.6274 24.3096 57.6228 24.3142 57.6159C24.9665 56.6168 42.1812 30.2377 44.4413 26.7741C44.5952 26.5398 44.8524 26.3951 45.1326 26.3859C45.3118 26.3813 45.4795 26.3768 45.4795 26.3768ZM47.7809 21.6361C48.0565 21.6223 48.3183 21.7647 48.4539 22.0059C48.78 22.587 49.3496 23.6022 49.3496 23.6022L1.32068 26.4319L0 24.1006L4.29507 23.8801L3.07086 21.7808C3.07086 21.7808 3.5486 21.7969 3.91379 21.8084C4.16415 21.8176 4.39383 21.9531 4.52016 22.1713C4.85549 22.7432 5.48253 23.8181 5.48253 23.8181L7.68059 23.7055L6.78253 21.9002C6.78253 21.9002 7.20285 21.9117 7.54508 21.9232C7.8138 21.9324 8.05727 22.0886 8.1767 22.3274C8.42706 22.8328 8.8313 23.6458 8.8313 23.6458L10.5287 23.5585L9.87865 21.9967C9.87865 21.9967 10.2461 22.0082 10.5677 22.0197C10.8548 22.0289 11.1098 22.2034 11.22 22.4699C11.3992 22.9017 11.6495 23.4988 11.6495 23.4988L12.9036 23.4345L12.4442 22.0794C12.4442 22.0794 12.7658 22.0886 13.0666 22.0978C13.3698 22.1093 13.6363 22.3045 13.735 22.5939C13.8568 22.9522 14.0015 23.3794 14.0015 23.3794C14.0015 23.3794 43.7431 21.8451 47.7809 21.6361ZM0.555832 17.9727L4.86238 18.0393L3.78058 15.8642C3.78058 15.8642 4.25832 15.9124 4.62122 15.9469C4.87157 15.9721 5.09206 16.1237 5.20231 16.3488C5.4986 16.9437 6.05214 18.0576 6.05214 18.0576L8.2525 18.0921L7.47617 16.2294C7.47617 16.2294 7.89649 16.2707 8.23642 16.3052C8.50515 16.3327 8.73713 16.5027 8.84049 16.7508C9.05639 17.2721 9.40551 18.1082 9.40551 18.1082L11.1029 18.1357L10.5608 16.5349C10.5608 16.5349 10.926 16.5716 11.2476 16.6038C11.5324 16.6313 11.7735 16.8243 11.8677 17.0953C12.017 17.5386 12.226 18.1518 12.226 18.1518C12.226 18.1518 44.4872 18.6502 48.6698 18.7145C48.9408 18.7191 49.1888 18.8776 49.306 19.1234C49.5908 19.7228 50.0938 20.7794 50.0938 20.7794L1.72492 20.3889L0.555832 17.9727ZM1.51131 11.8953L5.82016 12.249L4.88765 10.0073C4.88765 10.0073 5.3585 10.0877 5.7191 10.1474C5.96716 10.1887 6.17617 10.3541 6.27263 10.5861C6.52758 11.1993 7.00532 12.3477 7.00532 12.3477L9.19879 12.5292L8.54879 10.6205C8.54879 10.6205 8.96451 10.6894 9.30215 10.7469C9.56858 10.7905 9.78678 10.9765 9.87406 11.2315C10.0555 11.7643 10.3472 12.6234 10.3472 12.6234C10.3472 12.6234 44.5952 15.4508 49.4369 15.8504C49.7837 15.8803 50.0846 16.1008 50.2155 16.4246C50.4705 17.0516 50.8609 18.0163 50.8609 18.0163L2.5334 14.385L1.51131 11.8953ZM2.88711 5.89595L7.1638 6.53906L6.38058 4.23764C6.38058 4.23764 6.84684 4.35019 7.20285 4.43287C7.44631 4.4903 7.64614 4.67174 7.72653 4.90832C7.94013 5.53765 8.33978 6.71592 8.33978 6.71592C8.33978 6.71592 45.5484 12.3179 50.4429 13.0552C50.7668 13.1034 51.0378 13.3308 51.1388 13.6431C51.3502 14.2817 51.6878 15.3015 51.6878 15.3015L3.73923 8.44773L2.88711 5.89595ZM51.8417 10.3679L52.4274 12.5889L5.34242 2.6046L4.65796 0L51.8417 10.3679Z" fill="#9BD6AE"></path></svg> 