<svg xmlns="http://www.w3.org/2000/svg" viewBox="0 0 63 63"><defs><style>.a,.b{fill:#fff;}.a{opacity:0.85;}</style></defs><title>Asset 11</title><path class="a" d="M31.5,0A31.5,31.5,0,1,0,63,31.5,31.53,31.53,0,0,0,31.5,0Zm0,60A28.5,28.5,0,1,1,60,31.5,28.54,28.54,0,0,1,31.5,60Z"/><path class="b" d="M26.5,48.86A9.24,9.24,0,0,1,22,31.54V27.7A12.74,12.74,0,1,0,38.84,42.78H35.18A9.26,9.26,0,0,1,26.5,48.86Z"/><circle class="b" cx="31.5" cy="12.61" r="4"/><path class="b" d="M43.34,36.33h0l-.3-.56a1.73,1.73,0,0,0-1.25-.88L33.5,33.5V25l2.94,2.23a1.77,1.77,0,0,0,1.06.35h6.33a1.75,1.75,0,0,0,0-3.5H38.09l-6.42-4.86a1.47,1.47,0,0,0-.48-.25,4,4,0,0,0-5.69,3.61v13a4,4,0,0,0,4,4c2.23,0,11.3-.63,11.3-.63L46,48.45a1.76,1.76,0,0,0,1.54.91,1.83,1.83,0,0,0,.84-.21,1.75,1.75,0,0,0,.9-1.37,1.8,1.8,0,0,0-.2-1Z"/><path class="b" d="M50.83,23.53a1,1,0,0,0-1.34.45l-3.07,6.13H40a1,1,0,0,0,0,2h7a1,1,0,0,0,.9-.55l3.34-6.68A1,1,0,0,0,50.83,23.53Z"/></svg>